<svg width="64" height="64" viewBox="0 0 64 64" fill="none" xmlns="http://www.w3.org/2000/svg">
<path d="M25.55 60.4998C20.2 60.4998 15.04 58.5598 11.02 55.0298C6.24 50.8498 3.5 44.8098 3.5 38.4498C3.5 32.0898 6.24 26.0498 11.02 21.8598C15.63 17.8098 21.78 15.8498 27.95 16.5198C28.77 16.6098 29.37 17.3498 29.28 18.1698C29.19 18.9898 28.44 19.5798 27.63 19.4998C22.3 18.9198 16.99 20.6098 13 24.1098C8.87 27.7298 6.5 32.9598 6.5 38.4398C6.5 43.9198 8.87 49.1498 13 52.7598C16.47 55.8098 20.93 57.4898 25.55 57.4898C30.17 57.4898 34.63 55.8098 38.1 52.7598C42.24 49.1498 44.61 43.9298 44.61 38.4398C44.61 35.6998 44.04 33.0498 42.9 30.5698C42.56 29.8198 42.89 28.9298 43.64 28.5798C44.39 28.2398 45.28 28.5798 45.63 29.3198C46.94 32.1998 47.61 35.2598 47.61 38.4298C47.61 44.7898 44.86 50.8298 40.08 55.0098C36.07 58.5398 30.91 60.4798 25.55 60.4798V60.4998Z" fill="#747477"/>
<path d="M12.0101 55.3996C11.5901 55.3996 11.1801 55.2296 10.8801 54.8896C10.3301 54.2696 10.4001 53.3196 11.0201 52.7696C15.1501 49.1596 17.5201 43.9396 17.5201 38.4496C17.5201 32.9596 15.1501 27.7396 11.0201 24.1196C10.4001 23.5696 10.3401 22.6296 10.8801 21.9996C11.4301 21.3796 12.3701 21.3096 13.0001 21.8596C17.7801 26.0496 20.5201 32.0996 20.5201 38.4496C20.5201 44.7996 17.7801 50.8496 13.0001 55.0296C12.7201 55.2796 12.3601 55.3996 12.0101 55.3996Z" fill="#747477" fill-opacity="0.8"/>
<path d="M39.0901 55.3991C38.7401 55.3991 38.3901 55.2791 38.1001 55.0291C33.3201 50.8491 30.5801 44.8091 30.5801 38.4491C30.5801 33.3991 32.3301 28.4691 35.5101 24.5591C36.0301 23.9191 36.9801 23.8191 37.6201 24.3391C38.2601 24.8591 38.3601 25.8091 37.8401 26.4491C35.1001 29.8191 33.5901 34.0791 33.5901 38.4391C33.5901 43.9291 35.9601 49.1491 40.0901 52.7591C40.7101 53.2991 40.7801 54.2491 40.2301 54.8791C39.9301 55.2191 39.5201 55.3891 39.1001 55.3891L39.0901 55.3991Z" fill="#747477" fill-opacity="0.8"/>
<path d="M35.9996 32.6402C35.6496 32.6402 35.3096 32.5202 35.0296 32.2902C34.6396 31.9602 34.4396 31.4602 34.5096 30.9502L35.1496 26.0002C33.3396 23.5802 32.3496 20.6102 32.3496 17.5702C32.3496 9.81023 38.6596 3.49023 46.4296 3.49023C54.1996 3.49023 60.5096 9.80023 60.5096 17.5702C60.5096 25.3402 54.1996 31.6402 46.4296 31.6402C44.8896 31.6402 43.3696 31.3802 41.8896 30.8802L36.4496 32.5702C36.2996 32.6102 36.1496 32.6402 35.9996 32.6402ZM46.4196 6.50023C40.3096 6.50023 35.3396 11.4702 35.3396 17.5802C35.3396 20.1402 36.2396 22.6502 37.8696 24.6202C38.1296 24.9402 38.2496 25.3602 38.1996 25.7702L37.7796 29.0302L41.4696 27.8802C41.7896 27.7802 42.1396 27.7902 42.4496 27.9102C43.7396 28.4002 45.0696 28.6502 46.4196 28.6502C52.5296 28.6502 57.4996 23.6802 57.4996 17.5802C57.4996 11.4802 52.5296 6.50023 46.4196 6.50023Z" fill="#FEA04D"/>
<path d="M46.4193 21.6207C45.5893 21.6207 44.9193 20.9507 44.9193 20.1207V19.2207C44.9193 17.7607 45.7893 16.4507 47.1393 15.8907C47.8493 15.6007 48.4993 14.7807 48.2493 13.6807C48.0993 13.0107 47.5493 12.4607 46.8793 12.3107C46.2793 12.1707 45.6993 12.3107 45.2393 12.6707C44.7893 13.0307 44.5293 13.5707 44.5293 14.1507C44.5293 14.9807 43.8593 15.6507 43.0293 15.6507C42.1993 15.6507 41.5293 14.9807 41.5293 14.1507C41.5293 12.6507 42.1993 11.2607 43.3693 10.3307C44.5393 9.4007 46.0593 9.0607 47.5493 9.3907C49.3393 9.8007 50.7693 11.2207 51.1793 13.0207C51.7193 15.3807 50.4993 17.7507 48.2893 18.6707C48.0593 18.7607 47.9193 18.9807 47.9193 19.2307V20.1307C47.9193 20.9607 47.2493 21.6307 46.4193 21.6307V21.6207Z" fill="#FEA04D" fill-opacity="0.8"/>
<path d="M46.4199 25.8902C46.2299 25.8902 46.0299 25.8502 45.8499 25.7802C45.6699 25.7002 45.4999 25.5902 45.3599 25.4502C45.2199 25.3102 45.1099 25.1502 45.0399 24.9702C44.9599 24.7802 44.9199 24.5902 44.9199 24.3902C44.9199 24.2902 44.9399 24.1902 44.9499 24.1002C44.9699 24.0002 44.9999 23.9102 45.0399 23.8202C45.0799 23.7302 45.1199 23.6402 45.1799 23.5602C45.2299 23.4802 45.2999 23.4002 45.3599 23.3302C45.9199 22.7702 46.9299 22.7702 47.4799 23.3302C47.5499 23.4002 47.6199 23.4802 47.6699 23.5602C47.7299 23.6402 47.7699 23.7302 47.8099 23.8202C47.8499 23.9102 47.8799 24.0002 47.8999 24.1002C47.9199 24.1902 47.9299 24.2902 47.9299 24.3902C47.9299 24.7902 47.7699 25.1702 47.4799 25.4502C47.1999 25.7302 46.8199 25.8902 46.4199 25.8902Z" fill="#FEA04D" fill-opacity="0.8"/>
</svg>
